HIERARCHY
ROOT Hips
{
  OFFSET 19.229 27.075 -233.490
  CHANNELS 6 Xposition Yposition Zposition Zrotation Xrotation Yrotation
  JOINT LeftUpLeg
  {
    OFFSET 8.406 -8.052 2.102
    CHANNELS 6 Xposition Yposition Zposition Zrotation Xrotation Yrotation
    JOINT LeftLeg
    {
      OFFSET -0.000 -53.886 0.000
      CHANNELS 6 Xposition Yposition Zposition Zrotation Xrotation Yrotation
      JOINT LeftFoot
      {
        OFFSET -0.000 -38.735 -0.000
        CHANNELS 6 Xposition Yposition Zposition Zrotation Xrotation Yrotation
        End Site
        {
          OFFSET 0.000 -7.555 4.362
        }
      }
    }
  }
  JOINT RightUpLeg
  {
    OFFSET -8.155 -8.314 1.630
    CHANNELS 6 Xposition Yposition Zposition Zrotation Xrotation Yrotation
    JOINT RightLeg
    {
      OFFSET 0.000 -54.070 0.000
      CHANNELS 6 Xposition Yposition Zposition Zrotation Xrotation Yrotation
      JOINT RightFoot
      {
        OFFSET -0.000 -38.332 -0.000
        CHANNELS 6 Xposition Yposition Zposition Zrotation Xrotation Yrotation
        End Site
        {
          OFFSET 0.000 -7.717 4.456
        }
      }
    }
  }
  JOINT Spine
  {
    OFFSET 0.000 6.257 -6.257
    CHANNELS 6 Xposition Yposition Zposition Zrotation Xrotation Yrotation
    JOINT LeftShoulder
    {
      OFFSET -0.000 37.299 0.000
      CHANNELS 6 Xposition Yposition Zposition Zrotation Xrotation Yrotation
      JOINT LeftArm
      {
        OFFSET 21.800 0.000 -0.000
        CHANNELS 6 Xposition Yposition Zposition Zrotation Xrotation Yrotation
        JOINT LeftForeArm
        {
          OFFSET 25.271 0.000 0.000
          CHANNELS 6 Xposition Yposition Zposition Zrotation Xrotation Yrotation
          JOINT LeftHand
          {
            OFFSET 25.183 -0.000 -0.000
            CHANNELS 6 Xposition Yposition Zposition Zrotation Xrotation Yrotation
            JOINT LeftHandThumb1
            {
            OFFSET 4.970 -0.620 3.390
            CHANNELS 6 Xposition Yposition Zposition Zrotation Xrotation Yrotation
              JOINT LeftHandThumb2
              {
              OFFSET 2.150 -0.000 0.000
              CHANNELS 6 Xposition Yposition Zposition Zrotation Xrotation Yrotation
                JOINT LeftHandThumb3
                {
                OFFSET 2.200 -0.000 0.000
                CHANNELS 6 Xposition Yposition Zposition Zrotation Xrotation Yrotation
                  JOINT LeftHandThumb4
                  {
                  OFFSET 1.700 -0.000 0.000
                  CHANNELS 6 Xposition Yposition Zposition Zrotation Xrotation Yrotation
                  }
                }
              }
            }
            JOINT LeftHandIndex1
            {
            OFFSET 8.730 0.680 2.070
            CHANNELS 6 Xposition Yposition Zposition Zrotation Xrotation Yrotation
              JOINT LeftHandIndex2
              {
              OFFSET 2.670 -0.000 0.000
              CHANNELS 6 Xposition Yposition Zposition Zrotation Xrotation Yrotation
                JOINT LeftHandIndex3
                {
                OFFSET 2.130 -0.000 0.000
                CHANNELS 6 Xposition Yposition Zposition Zrotation Xrotation Yrotation
                  JOINT LeftHandIndex4
                  {
                  OFFSET 1.800 -0.000 0.000
                  CHANNELS 6 Xposition Yposition Zposition Zrotation Xrotation Yrotation
                  }
                }
              }
            }
            JOINT LeftHandMiddle1
            {
            OFFSET 9.220 0.670 0.550
            CHANNELS 6 Xposition Yposition Zposition Zrotation Xrotation Yrotation
              JOINT LeftHandMiddle2
              {
              OFFSET 2.660 -0.000 0.000
              CHANNELS 6 Xposition Yposition Zposition Zrotation Xrotation Yrotation
                JOINT LeftHandMiddle3
                {
                OFFSET 2.280 -0.000 0.000
                CHANNELS 6 Xposition Yposition Zposition Zrotation Xrotation Yrotation
                  JOINT LeftHandMiddle4
                  {
                  OFFSET 1.500 -0.000 0.000
                  CHANNELS 6 Xposition Yposition Zposition Zrotation Xrotation Yrotation
                  }
                }
              }
            }
            JOINT LeftHandRing1
            {
            OFFSET 9.250 0.670 -1.130
            CHANNELS 6 Xposition Yposition Zposition Zrotation Xrotation Yrotation
              JOINT LeftHandRing2
              {
              OFFSET 2.470 -0.000 0.000
              CHANNELS 6 Xposition Yposition Zposition Zrotation Xrotation Yrotation
                JOINT LeftHandRing3
                {
                OFFSET 2.210 -0.000 0.000
                CHANNELS 6 Xposition Yposition Zposition Zrotation Xrotation Yrotation
                  JOINT LeftHandRing4
                  {
                  OFFSET 1.800 -0.000 0.000
                  CHANNELS 6 Xposition Yposition Zposition Zrotation Xrotation Yrotation
                  }
                }
              }
            }
            JOINT LeftHandPinky1
            {
            OFFSET 9.350 0.660 -2.720
            CHANNELS 6 Xposition Yposition Zposition Zrotation Xrotation Yrotation
              JOINT LeftHandPinky2
              {
              OFFSET 1.630 -0.000 0.000
              CHANNELS 6 Xposition Yposition Zposition Zrotation Xrotation Yrotation
                JOINT LeftHandPinky3
                {
                OFFSET 1.710 -0.000 0.000
                CHANNELS 6 Xposition Yposition Zposition Zrotation Xrotation Yrotation
                  JOINT LeftHandPinky4
                  {
                  OFFSET 1.800 -0.000 0.000
                  CHANNELS 6 Xposition Yposition Zposition Zrotation Xrotation Yrotation
                  }
                }
              }
            }
          }
        }
      }
    }
    JOINT RightShoulder
    {
      OFFSET -0.000 37.299 0.000
      CHANNELS 6 Xposition Yposition Zposition Zrotation Xrotation Yrotation
      JOINT RightArm
      {
        OFFSET -22.096 0.000 -0.000
        CHANNELS 6 Xposition Yposition Zposition Zrotation Xrotation Yrotation
        JOINT RightForeArm
        {
          OFFSET -27.997 0.000 0.000
          CHANNELS 6 Xposition Yposition Zposition Zrotation Xrotation Yrotation
          JOINT RightHand
          {
            OFFSET -25.058 0.000 -0.000
            CHANNELS 6 Xposition Yposition Zposition Zrotation Xrotation Yrotation
            JOINT RightHandThumb1
            {
            OFFSET -4.970 -0.620 3.390
            CHANNELS 6 Xposition Yposition Zposition Zrotation Xrotation Yrotation
              JOINT RightHandThumb2
              {
              OFFSET -2.150 0.000 0.000
              CHANNELS 6 Xposition Yposition Zposition Zrotation Xrotation Yrotation
                JOINT RightHandThumb3
                {
                OFFSET -2.200 0.000 0.000
                CHANNELS 6 Xposition Yposition Zposition Zrotation Xrotation Yrotation
                  JOINT RightHandThumb4
                  {
                  OFFSET -1.700 0.000 0.000
                  CHANNELS 6 Xposition Yposition Zposition Zrotation Xrotation Yrotation
                  }
                }
              }
            }
            JOINT RightHandIndex1
            {
            OFFSET -8.730 0.680 2.070
            CHANNELS 6 Xposition Yposition Zposition Zrotation Xrotation Yrotation
              JOINT RightHandIndex2
              {
              OFFSET -2.670 0.000 0.000
              CHANNELS 6 Xposition Yposition Zposition Zrotation Xrotation Yrotation
                JOINT RightHandIndex3
                {
                OFFSET -2.130 0.000 0.000
                CHANNELS 6 Xposition Yposition Zposition Zrotation Xrotation Yrotation
                  JOINT RightHandIndex4
                  {
                  OFFSET -1.800 0.000 0.000
                  CHANNELS 6 Xposition Yposition Zposition Zrotation Xrotation Yrotation
                  }
                }
              }
            }
            JOINT RightHandMiddle1
            {
            OFFSET -9.220 0.670 0.550
            CHANNELS 6 Xposition Yposition Zposition Zrotation Xrotation Yrotation
              JOINT RightHandMiddle2
              {
              OFFSET -2.660 0.000 0.000
              CHANNELS 6 Xposition Yposition Zposition Zrotation Xrotation Yrotation
                JOINT RightHandMiddle3
                {
                OFFSET -2.280 0.000 0.000
                CHANNELS 6 Xposition Yposition Zposition Zrotation Xrotation Yrotation
                  JOINT RightHandMiddle4
                  {
                  OFFSET -1.500 0.000 0.000
                  CHANNELS 6 Xposition Yposition Zposition Zrotation Xrotation Yrotation
                  }
                }
              }
            }
            JOINT RightHandRing1
            {
            OFFSET -9.250 0.670 -1.130
            CHANNELS 6 Xposition Yposition Zposition Zrotation Xrotation Yrotation
              JOINT RightHandRing2
              {
              OFFSET -2.470 0.000 0.000
              CHANNELS 6 Xposition Yposition Zposition Zrotation Xrotation Yrotation
                JOINT RightHandRing3
                {
                OFFSET -2.210 0.000 0.000
                CHANNELS 6 Xposition Yposition Zposition Zrotation Xrotation Yrotation
                  JOINT RightHandRing4
                  {
                  OFFSET -1.800 0.000 0.000
                  CHANNELS 6 Xposition Yposition Zposition Zrotation Xrotation Yrotation
                  }
                }
              }
            }
            JOINT RightHandPinky1
            {
            OFFSET -9.350 0.660 -2.720
            CHANNELS 6 Xposition Yposition Zposition Zrotation Xrotation Yrotation
              JOINT RightHandPinky2
              {
              OFFSET -1.630 0.000 0.000
              CHANNELS 6 Xposition Yposition Zposition Zrotation Xrotation Yrotation
                JOINT RightHandPinky3
                {
                OFFSET -1.710 0.000 0.000
                CHANNELS 6 Xposition Yposition Zposition Zrotation Xrotation Yrotation
                  JOINT RightHandPinky4
                  {
                  OFFSET -1.800 0.000 0.000
                  CHANNELS 6 Xposition Yposition Zposition Zrotation Xrotation Yrotation
                  }
                }
              }
            }
          }
        }
      }
    }
    JOINT Neck
    {
      OFFSET -0.000 37.299 0.000
      CHANNELS 6 Xposition Yposition Zposition Zrotation Xrotation Yrotation
      JOINT Head
      {
        OFFSET -0.000 18.859 -0.000
        CHANNELS 6 Xposition Yposition Zposition Zrotation Xrotation Yrotation
        End Site
        {
          OFFSET -0.000 0.075 -0.000
        }
      }
    }
  }
}
MOTION
Frames:	5
Frame Time:	0.0333333
31.0924 26.0564 -276.279 -0.137428 2.50164 -5.43636 8.06325 -7.89007 1.98357 5.10049 0.0795922 0.423382 -5.96046e-06 -59.0663 -9.53674e-05 -6.14868 -0.546843 -0.0589101 -5.96046e-06 -38.0718 0 24.6255 -22.1967 23.9729 -7.73838 -8.21468 2.10156 1.22596 1.83108 0.42605 3.1665e-06 -59.1419 2.38419e-05 0.587053 -8.93011 0.0911309 -5.02914e-06 -36.8449 -4.76837e-05 -9.36672 -11.3005 -7.13576 2.98023e-06 6.2714 -6.27141 1.20842 -4.96919 -1.36377 -1.22935e-05 37.2987 -2.38419e-05 -33.8879 1.07789e-05 3.5986 21.5634 5.96046e-06 0 -36.6408 31.4784 -7.8402 26.3538 -2.38419e-05 0 4.12158e-06 -3.4151e-06 -22.7892 26.5169 -1.19209e-05 7.15256e-05 -5.21653 -0.16784 6.15002 0.0062 0.0497 0.0339 -5.8026 0 0 0 0.0215 0 0 -5.8026 0 0 0.022 0 0 -5.8026 0 0 0.017 0 0 0 0 -0.0068 0.0873 0.0207 -5.8026 0 0 0 0.0267 0 -10.3157 0 0 0 0.0213 0 -11.6052 0 0 0 0.018 0 0 0 0 -0.0067 0.0922 0.0055 -5.8026 0 0 0 0.0266 0 -10.3157 0 0 0 0.0228 0 -11.6052 0 0 0 0.015 0 0 0 0 -0.0067 0.0925 -0.0113 -5.8026 0 0 0 0.0247 0 -10.3157 0 0 0 0.0221 0 -11.6052 0 0 0 0.018 0 0 0 0 -0.0066 0.0935 -0.0272 -5.8026 0 0 0 0.0163 0 -10.3157 0 0 0 0.0171 0 -11.6052 0 0 0 0.018 0 0 0 0 -1.22935e-05 37.2987 -2.38419e-05 27.906 -1.70755e-06 -3.58993 -21.6155 0 0 42.1613 37.9182 8.82343 -26.9153 1.19209e-05 -4.76837e-05 9.62531e-06 1.70755e-06 26.1741 -27.1751 0 4.76837e-05 -6.95013 0.131924 0.320115 -0.0062 0.0497 0.0339 5.22204 0 0 0 0.0215 0 0 -5.22204 0 0 0.022 0 0 -5.22204 0 0 0.017 0 0 0 0 0.0068 0.0873 0.0207 5.22204 0 0 0 0.0267 0 9.28362 0 0 0 0.0213 0 10.4441 0 0 0 0.018 0 0 0 0 0.0067 0.0922 0.0055 5.22204 0 0 0 0.0266 0 9.28362 0 0 0 0.0228 0 10.4441 0 0 0 0.015 0 0 0 0 0.0067 0.0925 -0.0113 5.22204 0 0 0 0.0247 0 9.28362 0 0 0 0.0221 0 10.4441 0 0 0 0.018 0 0 0 0 0.0066 0.0935 -0.0272 5.22204 0 0 0 0.0163 0 9.28362 0 0 0 0.0171 0 10.4441 0 0 0 0.018 0 0 0 0 -1.22935e-05 37.2987 -2.38419e-05 -0.347355 7.72179 0.0466756 2.04891e-06 20.374 0 9.8184e-06 -9.8184e-06 4.26887e-07 
30.7369 26.211 -274.862 -0.123328 1.94007 -5.46898 8.04492 -7.9142 1.83725 4.67983 2.0508 0.809362 7.45058e-06 -59.1746 -2.38419e-05 -5.6739 -3.56562 -0.35402 0 -38.1888 -4.76837e-05 21.9029 -20.675 20.7072 -7.73048 -8.18622 2.09618 1.56465 2.9316 0.909608 4.37722e-06 -59.2301 2.38419e-05 -0.0491383 -8.17598 -0.00698917 -2.79397e-06 -36.9321 0 -10.5444 -11.109 -8.02703 3.72529e-07 6.34086 -6.34084 1.10487 -4.38108 -1.23557 -2.51457e-06 37.2987 -4.76837e-05 -33.9226 1.16327e-05 2.1824 21.2722 5.96046e-06 -2.38419e-05 -39.5198 1.69489 -0.653671 27.398 -8.9407e-06 0 -7.89832 2.1635 -15.2226 26.2423 1.49012e-06 7.15256e-05 -4.20747 -0.190933 12.027 0.0062 0.0497 0.0339 0 0 0 0 0.0215 0 0 0 0 0 0.022 0 0 0 0 0 0.017 0 0 0 0 -0.0068 0.0873 0.0207 0 0 0 0 0.0267 0 0 0 0 0 0.0213 0 0 0 0 0 0.018 0 0 0 0 -0.0067 0.0922 0.0055 0 0 0 0 0.0266 0 0 0 0 0 0.0228 0 0 0 0 0 0.015 0 0 0 0 -0.0067 0.0925 -0.0113 0 0 0 0 0.0247 0 0 0 0 0 0.0221 0 0 0 0 0 0.018 0 0 0 0 -0.0066 0.0935 -0.0272 0 0 0 0 0.0163 0 0 0 0 0 0.0171 0 0 0 0 0 0.018 0 0 0 0 -2.51457e-06 37.2987 -4.76837e-05 27.8888 -1.70755e-06 -2.13486 -21.7456 -1.78814e-05 -2.38419e-05 45.443 39.6934 3.2795 -27.6543 1.19209e-05 0 7.15978e-06 5.12264e-06 21.4651 -27.132 1.19209e-05 -4.76837e-05 -0.183841 0.0668474 -5.24384 -0.0062 0.0497 0.0339 0 0 0 0 0.0215 0 0 0 0 0 0.022 0 0 0 0 0 0.017 0 0 0 0 0.0068 0.0873 0.0207 0 0 0 0 0.0267 0 0 0 0 0 0.0213 0 0 0 0 0 0.018 0 0 0 0 0.0067 0.0922 0.0055 0 0 0 0 0.0266 0 0 0 0 0 0.0228 0 0 0 0 0 0.015 0 0 0 0 0.0067 0.0925 -0.0113 0 0 0 0 0.0247 0 0 0 0 0 0.0221 0 0 0 0 0 0.018 0 0 0 0 0.0066 0.0935 -0.0272 0 0 0 0 0.0163 0 0 0 0 0 0.0171 0 0 0 0 0 0.018 0 0 0 0 -2.51457e-06 37.2987 -4.76837e-05 0.3189 6.46115 -0.0358858 -2.70084e-06 20.5447 0 1.00318e-05 -1.10991e-05 0 
30.7369 26.211 -274.862 -0.123328 1.94007 -5.46898 8.04492 -7.9142 1.83725 4.67983 2.0508 0.809362 7.45058e-06 -59.1746 -2.38419e-05 -5.6739 -3.56562 -0.35402 0 -38.1888 -4.76837e-05 21.9029 -20.675 20.7072 -7.73048 -8.18622 2.09618 1.56465 2.9316 0.909608 4.37722e-06 -59.2301 2.38419e-05 -0.0491383 -8.17598 -0.00698917 -2.79397e-06 -36.9321 0 -10.5444 -11.109 -8.02703 3.72529e-07 6.34086 -6.34084 1.10487 -4.38108 -1.23557 -2.51457e-06 37.2987 -4.76837e-05 -33.9226 1.16327e-05 2.1824 21.2722 5.96046e-06 -2.38419e-05 -39.5198 1.69489 -0.653671 27.398 -8.9407e-06 0 -7.89832 2.1635 -15.2226 26.2423 1.49012e-06 7.15256e-05 -4.20747 -0.190933 12.027 0.0062 0.0497 0.0339 0 0 0 0 0.0215 0 0 0 0 0 0.022 0 0 0 0 0 0.017 0 0 0 0 -0.0068 0.0873 0.0207 0 0 0 0 0.0267 0 0 0 0 0 0.0213 0 0 0 0 0 0.018 0 0 0 0 -0.0067 0.0922 0.0055 0 0 0 0 0.0266 0 0 0 0 0 0.0228 0 0 0 0 0 0.015 0 0 0 0 -0.0067 0.0925 -0.0113 0 0 0 0 0.0247 0 0 0 0 0 0.0221 0 0 0 0 0 0.018 0 0 0 0 -0.0066 0.0935 -0.0272 0 0 0 0 0.0163 0 0 0 0 0 0.0171 0 0 0 0 0 0.018 0 0 0 0 -2.51457e-06 37.2987 -4.76837e-05 27.8888 -1.70755e-06 -2.13486 -21.7456 -1.78814e-05 -2.38419e-05 45.443 39.6934 3.2795 -27.6543 1.19209e-05 0 7.15978e-06 5.12264e-06 21.4651 -27.132 1.19209e-05 -4.76837e-05 -0.183841 0.0668474 -5.24384 -0.0062 0.0497 0.0339 0 0 0 0 0.0215 0 0 0 0 0 0.022 0 0 0 0 0 0.017 0 0 0 0 0.0068 0.0873 0.0207 0 0 0 0 0.0267 0 0 0 0 0 0.0213 0 0 0 0 0 0.018 0 0 0 0 0.0067 0.0922 0.0055 0 0 0 0 0.0266 0 0 0 0 0 0.0228 0 0 0 0 0 0.015 0 0 0 0 0.0067 0.0925 -0.0113 0 0 0 0 0.0247 0 0 0 0 0 0.0221 0 0 0 0 0 0.018 0 0 0 0 0.0066 0.0935 -0.0272 0 0 0 0 0.0163 0 0 0 0 0 0.0171 0 0 0 0 0 0.018 0 0 0 0 -2.51457e-06 37.2987 -4.76837e-05 0.3189 6.46115 -0.0358858 -2.70084e-06 20.5447 0 1.00318e-05 -1.10991e-05 0 
30.7201 26.2047 -274.643 -0.127086 1.88634 -5.37611 8.0436 -7.91414 1.83308 4.61539 2.30038 0.747342 -2.98023e-06 -59.1855 0 -5.60609 -3.91608 -0.38409 4.47035e-06 -38.1845 2.38419e-05 21.6249 -20.4691 20.3628 -7.73569 -8.18736 2.07882 1.59326 3.05922 0.858573 -1.95578e-06 -59.2396 4.76837e-05 -0.0949697 -8.04961 -0.0132983 -6.33299e-06 -36.9027 -2.38419e-05 -10.7066 -11.0814 -8.15043 4.84288e-06 6.34939 -6.34942 1.07661 -4.29893 -1.17858 -5.86733e-06 37.2987 4.76837e-05 -33.904 1.08856e-05 2.08075 21.2227 0 0 -39.2997 1.80636 0.00920484 27.5542 0 -2.38419e-05 -7.48053 1.98324 -14.7651 26.3064 -4.47035e-06 0 -4.1624 -0.182146 12.4604 0.0062 0.0497 0.0339 0 0 0 0 0.0215 0 0 0 0 0 0.022 0 0 0 0 0 0.017 0 0 0 0 -0.0068 0.0873 0.0207 0 0 0 0 0.0267 0 0 0 0 0 0.0213 0 0 0 0 0 0.018 0 0 0 0 -0.0067 0.0922 0.0055 0 0 0 0 0.0266 0 0 0 0 0 0.0228 0 0 0 0 0 0.015 0 0 0 0 -0.0067 0.0925 -0.0113 0 0 0 0 0.0247 0 0 0 0 0 0.0221 0 0 0 0 0 0.018 0 0 0 0 -0.0066 0.0935 -0.0272 0 0 0 0 0.0163 0 0 0 0 0 0.0171 0 0 0 0 0 0.018 0 0 0 0 -5.86733e-06 37.2987 4.76837e-05 27.9557 -3.84198e-06 -2.02835 -21.7707 0 0 45.8263 39.5027 2.38153 -27.7421 0 0 7.22525e-06 -6.83019e-06 21.1837 -27.1234 0 -4.76837e-05 0.563603 0.0339922 -5.18755 -0.0062 0.0497 0.0339 0 0 0 0 0.0215 0 0 0 0 0 0.022 0 0 0 0 0 0.017 0 0 0 0 0.0068 0.0873 0.0207 0 0 0 0 0.0267 0 0 0 0 0 0.0213 0 0 0 0 0 0.018 0 0 0 0 0.0067 0.0922 0.0055 0 0 0 0 0.0266 0 0 0 0 0 0.0228 0 0 0 0 0 0.015 0 0 0 0 0.0067 0.0925 -0.0113 0 0 0 0 0.0247 0 0 0 0 0 0.0221 0 0 0 0 0 0.018 0 0 0 0 0.0066 0.0935 -0.0272 0 0 0 0 0.0163 0 0 0 0 0 0.0171 0 0 0 0 0 0.018 0 0 0 0 -5.86733e-06 37.2987 4.76837e-05 0.457712 6.25407 -0.0498626 -6.07688e-06 20.5816 0 9.73836e-06 -1.15259e-05 4.26887e-07 
30.7201 26.2047 -274.643 -0.127086 1.88634 -5.37611 8.0436 -7.91414 1.83308 4.61539 2.30038 0.747342 -2.98023e-06 -59.1855 0 -5.60609 -3.91608 -0.38409 4.47035e-06 -38.1845 2.38419e-05 21.6249 -20.4691 20.3628 -7.73569 -8.18736 2.07882 1.59326 3.05922 0.858573 -1.95578e-06 -59.2396 4.76837e-05 -0.0949697 -8.04961 -0.0132983 -6.33299e-06 -36.9027 -2.38419e-05 -10.7066 -11.0814 -8.15043 4.84288e-06 6.34939 -6.34942 1.07661 -4.29893 -1.17858 -5.86733e-06 37.2987 4.76837e-05 -33.904 1.08856e-05 2.08075 21.2227 0 0 -39.2997 1.80636 0.00920484 27.5542 0 -2.38419e-05 -7.48053 1.98324 -14.7651 26.3064 -4.47035e-06 0 -4.1624 -0.182146 12.4604 0.0062 0.0497 0.0339 0 0 0 0 0.0215 0 0 0 0 0 0.022 0 0 0 0 0 0.017 0 0 0 0 -0.0068 0.0873 0.0207 0 0 0 0 0.0267 0 0 0 0 0 0.0213 0 0 0 0 0 0.018 0 0 0 0 -0.0067 0.0922 0.0055 0 0 0 0 0.0266 0 0 0 0 0 0.0228 0 0 0 0 0 0.015 0 0 0 0 -0.0067 0.0925 -0.0113 0 0 0 0 0.0247 0 0 0 0 0 0.0221 0 0 0 0 0 0.018 0 0 0 0 -0.0066 0.0935 -0.0272 0 0 0 0 0.0163 0 0 0 0 0 0.0171 0 0 0 0 0 0.018 0 0 0 0 -5.86733e-06 37.2987 4.76837e-05 27.9557 -3.84198e-06 -2.02835 -21.7707 0 0 45.8263 39.5027 2.38153 -27.7421 0 0 7.22525e-06 -6.83019e-06 21.1837 -27.1234 0 -4.76837e-05 0.563603 0.0339922 -5.18755 -0.0062 0.0497 0.0339 0 0 0 0 0.0215 0 0 0 0 0 0.022 0 0 0 0 0 0.017 0 0 0 0 0.0068 0.0873 0.0207 0 0 0 0 0.0267 0 0 0 0 0 0.0213 0 0 0 0 0 0.018 0 0 0 0 0.0067 0.0922 0.0055 0 0 0 0 0.0266 0 0 0 0 0 0.0228 0 0 0 0 0 0.015 0 0 0 0 0.0067 0.0925 -0.0113 0 0 0 0 0.0247 0 0 0 0 0 0.0221 0 0 0 0 0 0.018 0 0 0 0 0.0066 0.0935 -0.0272 0 0 0 0 0.0163 0 0 0 0 0 0.0171 0 0 0 0 0 0.018 0 0 0 0 -5.86733e-06 37.2987 4.76837e-05 0.457712 6.25407 -0.0498626 -6.07688e-06 20.5816 0 9.73836e-06 -1.15259e-05 4.26887e-07 
